<svg width="49" height="49" viewBox="0 0 49 49" fill="none" xmlns="http://www.w3.org/2000/svg">
<g clip-path="url(#clip0_2352_773)">
<path d="M10.7266 18.4689H13.595V13.871H23.0571V35.5495H19.3375V38.4206H29.6451V35.5495H25.9255V13.871H35.3876V18.4689H38.256V11H10.7266V18.4689Z" fill="#0075FF" stroke="#EEEFEA" stroke-width="0.8"/>
<path d="M45.9503 40.2631V8.73693C47.7207 8.13679 48.999 6.45896 48.999 4.48685C48.999 2.01278 46.988 0 44.516 0C42.5476 0 40.8726 1.27703 40.2715 3.04645H8.72756C8.12646 1.27703 6.4515 0 4.48293 0C2.01106 0 0 2.01278 0 4.48694C0 6.45906 1.27828 8.13679 3.04865 8.73703V40.2632C1.27828 40.8633 0 42.541 0 44.5132C0 46.9873 2.01097 49 4.48293 49C6.43934 49 8.10588 47.7388 8.71645 45.9863H40.2826C40.8931 47.7387 42.5597 49 44.5161 49C46.988 49 48.999 46.9872 48.999 44.5132C48.9989 42.541 47.7207 40.8633 45.9503 40.2631ZM40.257 43.1152H8.74201C8.30226 41.7766 7.24955 40.7148 5.9172 40.2631V8.73693C7.23864 8.28896 8.28484 7.24065 8.73091 5.91739H40.2681C40.7142 7.24065 41.7604 8.28896 43.0818 8.73693V40.2631C41.7496 40.7148 40.6968 41.7766 40.257 43.1152ZM44.516 2.87103C45.4062 2.87103 46.1305 3.59597 46.1305 4.48694C46.1305 5.37792 45.4062 6.10286 44.516 6.10286C43.6258 6.10286 42.9015 5.37792 42.9015 4.48694C42.9015 3.59597 43.6259 2.87103 44.516 2.87103ZM4.48293 2.87103C5.37314 2.87103 6.0974 3.59597 6.0974 4.48694C6.0974 5.37792 5.37314 6.10286 4.48293 6.10286C3.59271 6.10286 2.86845 5.37792 2.86845 4.48694C2.86845 3.59597 3.59281 2.87103 4.48293 2.87103ZM4.48293 46.129C3.59271 46.129 2.86845 45.4041 2.86845 44.5131C2.86845 43.6221 3.59271 42.8972 4.48293 42.8972C5.37314 42.8972 6.0974 43.6221 6.0974 44.5131C6.0974 45.4041 5.37314 46.129 4.48293 46.129ZM44.516 46.129C43.6258 46.129 42.9015 45.4041 42.9015 44.5131C42.9015 43.6221 43.6258 42.8972 44.516 42.8972C45.4062 42.8972 46.1305 43.6221 46.1305 44.5131C46.1305 45.4041 45.4062 46.129 44.516 46.129Z" fill="#0075FF" stroke="#EEEFEA" stroke-width="0.8"/>
</g>
<defs>
<clipPath id="clip0_2352_773">
<rect width="49" height="49" fill="white"/>
</clipPath>
</defs>
</svg>
