<svg width="48" height="48" viewBox="0 0 48 48" fill="none" xmlns="http://www.w3.org/2000/svg">
<path d="M40.5968 1.5H7.40325C4.14825 1.5 1.5 4.14825 1.5 7.40325V40.5968C1.5 43.8518 4.14825 46.5 7.40325 46.5H40.5968C43.8518 46.5 46.5 43.8518 46.5 40.5968V7.40325C46.5 4.14825 43.8518 1.5 40.5968 1.5ZM45 40.5968C45 43.0245 43.0245 45 40.5968 45H7.40325C4.9755 45 3 43.0245 3 40.5968V7.40325C3 4.9755 4.9755 3 7.40325 3H40.5968C43.0245 3 45 4.9755 45 7.40325V40.5968Z" fill="#0075FF" stroke="#0075FF" stroke-width="0.6"/>
<path d="M12.2529 19.1523H16.5879C17.0026 19.1523 17.3379 18.8163 17.3379 18.4023C17.3379 17.9883 17.0026 17.6523 16.5879 17.6523H12.2529C10.6059 17.6523 9.26562 18.9926 9.26562 20.6396V21.7631C9.26562 23.4101 10.6059 24.7503 12.2529 24.7503H14.3506C14.7504 24.7503 15.1231 24.9041 15.4021 25.1868C15.6834 25.4681 15.8379 25.8416 15.8379 26.2383V27.3618C15.8379 28.1816 15.1704 28.8491 14.3506 28.8491H10.0156C9.60088 28.8491 9.26562 29.1851 9.26562 29.5991C9.26562 30.0131 9.60088 30.3491 10.0156 30.3491H14.3506C15.9976 30.3491 17.3379 29.0088 17.3379 27.3618V26.2383C17.3379 25.4411 17.0274 24.6911 16.4656 24.1293C15.9054 23.5631 15.1539 23.2511 14.3506 23.2511H12.2529C11.4324 23.2511 10.7656 22.5836 10.7656 21.7638V20.6403C10.7656 19.8206 11.4331 19.1531 12.2529 19.1531V19.1523Z" fill="#0075FF" stroke="#0075FF" stroke-width="0.6"/>
<path d="M27.2874 19.1514C27.7021 19.1514 28.0374 18.8154 28.0374 18.4014C28.0374 17.9874 27.7021 17.6514 27.2874 17.6514H20.7129C20.2981 17.6514 19.9629 17.9874 19.9629 18.4014V29.5996C19.9629 30.0136 20.2981 30.3496 20.7129 30.3496H27.2874C27.7021 30.3496 28.0374 30.0136 28.0374 29.5996C28.0374 29.1856 27.7021 28.8496 27.2874 28.8496H21.4629V24.7509H25.7274C26.1421 24.7509 26.4774 24.4149 26.4774 24.0009C26.4774 23.5869 26.1421 23.2509 25.7274 23.2509H21.4629V19.1521L27.2874 19.1514Z" fill="#0075FF" stroke="#0075FF" stroke-width="0.6"/>
<path d="M36.6512 17.6514H32.7429C31.5947 17.6514 30.6602 18.5859 30.6602 19.7341V28.2669C30.6602 29.4151 31.5947 30.3496 32.7429 30.3496H36.6512C37.7994 30.3496 38.7339 29.4151 38.7339 28.2669V19.7341C38.7339 18.5859 37.7994 17.6514 36.6512 17.6514ZM37.2339 28.2669C37.2339 28.5879 36.9722 28.8496 36.6512 28.8496H32.7429C32.4212 28.8496 32.1602 28.5879 32.1602 28.2669V19.7341C32.1602 19.4131 32.4219 19.1514 32.7429 19.1514H36.6512C36.9729 19.1514 37.2339 19.4131 37.2339 19.7341V28.2669Z" fill="#0075FF" stroke="#0075FF" stroke-width="0.6"/>
</svg>
