<svg width="50" height="50" viewBox="0 0 50 50" fill="none" xmlns="http://www.w3.org/2000/svg">
<path d="M25 1C11.7661 1 1 11.7661 1 25C1 38.2339 11.7661 49 25 49C38.2339 49 49 38.2339 49 25C49 11.7661 38.2339 1 25 1ZM46.1242 23.5882H42.5165C42.1621 23.5882 41.8635 23.3278 41.8219 22.9812C41.4859 20.1682 40.4595 17.5932 38.9412 15.3936L42.1727 12.6308C44.4294 15.7551 45.8546 19.5153 46.1242 23.5882ZM40.3706 10.4567L37.1518 13.2089C34.3671 10.3431 30.5906 8.47177 26.4111 8.12447V3.87577C31.8951 4.23859 36.8115 6.69647 40.3706 10.4567ZM23.5882 3.87577V8.12447C19.4532 8.46753 15.7155 10.3049 12.9393 13.12L9.71694 10.3642C13.2689 6.65694 18.1501 4.23576 23.5882 3.87577ZM7.90141 12.5264L11.1329 15.2899C9.57365 17.5113 8.51906 20.1238 8.17812 22.9812C8.13718 23.3278 7.83859 23.5882 7.48424 23.5882H3.87647C4.14824 19.4701 5.60165 15.6711 7.90141 12.5264ZM25 46.1765C13.7984 46.1765 4.60565 37.432 3.87577 26.4118H7.48353C9.26729 26.4118 10.7715 25.0805 10.9819 23.3158C11.8282 16.2273 17.8544 10.8824 25 10.8824C32.1456 10.8824 38.1718 16.2273 39.0181 23.3151C39.2285 25.0805 40.732 26.4118 42.5158 26.4118H46.1235C45.3944 37.432 36.2016 46.1765 25 46.1765Z" fill="#0075FF" stroke="#EEEFEA" stroke-width="0.7"/>
<path d="M23.2128 34.6764C23.6652 34.79 24.1226 34.8465 24.5765 34.8465C25.5612 34.8465 26.5311 34.5811 27.3986 34.0644C28.6664 33.3076 29.5636 32.1027 29.925 30.6712C30.513 28.3411 29.4711 18.17 29.2558 16.1554C29.193 15.5674 28.7709 15.0811 28.1977 14.9356C27.6238 14.7909 27.021 15.0182 26.6878 15.5067C25.5415 17.1782 19.7956 25.6347 19.2076 27.9641C18.8462 29.3957 19.0636 30.8822 19.8203 32.15C20.577 33.4178 21.7812 34.3149 23.2128 34.6764ZM21.945 28.6559C22.2012 27.6408 24.5264 23.8728 26.8248 20.3724C27.1862 24.5441 27.4438 28.9636 27.1876 29.9794C27.0111 30.6797 26.5713 31.2691 25.9516 31.6397C25.3325 32.0095 24.6048 32.1161 23.9045 31.9389C23.2043 31.7625 22.6149 31.3234 22.245 30.7037C21.8744 30.0825 21.7678 29.3561 21.945 28.6559Z" fill="#0075FF" stroke="#EEEFEA" stroke-width="0.7"/>
<path d="M29.9406 37.7062H20.0582C19.279 37.7062 18.6465 38.3386 18.6465 39.1179C18.6465 39.8972 19.279 40.5297 20.0582 40.5297H29.9406C30.7199 40.5297 31.3524 39.8972 31.3524 39.1179C31.3524 38.3386 30.7199 37.7062 29.9406 37.7062Z" fill="#0075FF" stroke="#EEEFEA" stroke-width="0.7"/>
</svg>
