<svg width="48" height="48" viewBox="0 0 48 48" fill="none" xmlns="http://www.w3.org/2000/svg">
<g clip-path="url(#clip0_2352_755)">
<path d="M46.7727 18.2286C46.1534 17.6065 45.3537 17.1957 44.4874 17.0544C43.6211 16.9132 42.7324 17.0489 41.9476 17.442C39.2051 10.1842 32.2058 5.00024 24 5.00024C15.7942 5.00024 8.79278 10.1864 6.05024 17.4453C5.41186 17.1243 4.70177 16.9726 3.98796 17.0046C3.27414 17.0366 2.58048 17.2513 1.97337 17.628C1.36626 18.0048 0.866013 18.5311 0.52051 19.1566C0.175008 19.782 -0.00418797 20.4857 7.42956e-05 21.2002V28.4002C0.000211893 29.152 0.202173 29.8899 0.584868 30.5369C0.967564 31.184 1.51696 31.7165 2.17568 32.0787C2.83441 32.4409 3.57831 32.6197 4.3297 32.5963C5.0811 32.5729 5.81243 32.3482 6.44733 31.9456C7.58568 34.5118 9.27104 36.7982 11.3855 38.6449C13.4999 40.4916 15.9924 41.8539 18.6884 42.6365C18.7751 42.8611 18.9276 43.0541 19.126 43.1904C19.3244 43.3267 19.5593 43.3998 19.8 43.4002H28.2C28.5183 43.4002 28.8235 43.2737 29.0485 43.0487C29.2736 42.8236 29.4 42.5184 29.4 42.2002V39.8002C29.4 39.4819 29.2736 39.1767 29.0485 38.9516C28.8235 38.7266 28.5183 38.6002 28.2 38.6002H19.8C19.4818 38.6002 19.1765 38.7266 18.9515 38.9516C18.7265 39.1767 18.6 39.4819 18.6 39.8002V40.0936C11.9804 37.8365 7.20006 31.5736 7.20006 24.2002C7.20006 14.9373 14.736 7.40024 24 7.40024C33.264 7.40024 40.8 14.9373 40.8 24.2002C40.8015 25.948 40.5298 27.6853 39.9949 29.3493C39.9391 29.5066 39.9172 29.6738 39.9305 29.8402C39.9454 30.0259 40.0033 30.2055 40.0996 30.3649C40.5369 31.1939 41.2394 31.8524 42.0948 32.2353C42.9502 32.6182 43.9093 32.7034 44.8189 32.4773C45.7284 32.2512 46.536 31.7269 47.1126 30.9881C47.6892 30.2492 48.0016 29.3385 48 28.4013V21.2013C48.0021 20.6493 47.8947 20.1023 47.6841 19.592C47.4734 19.0818 47.1636 18.6183 46.7727 18.2286ZM4.20007 30.2002C3.72285 30.1996 3.26535 30.0098 2.92791 29.6723C2.59047 29.3349 2.40065 28.8774 2.40007 28.4002V21.2002C2.39911 20.8604 2.49465 20.5273 2.67558 20.2396C2.85652 19.952 3.11541 19.7216 3.42213 19.5753C3.72886 19.4291 4.07081 19.3729 4.40822 19.4133C4.74562 19.4538 5.06461 19.5892 5.32806 19.8038C4.54885 23.0158 4.63316 26.3768 5.57243 29.5456C5.40645 29.7496 5.19722 29.9141 4.95988 30.0273C4.72254 30.1405 4.46302 30.1996 4.20007 30.2002ZM45.6 28.4002C45.5994 28.8774 45.4096 29.3349 45.0721 29.6723C44.7347 30.0098 44.2772 30.1996 43.8 30.2002C43.5384 30.1987 43.2804 30.1393 43.0446 30.0261C42.8088 29.9129 42.6011 29.7488 42.4363 29.5456C43.3711 26.379 43.4553 23.0221 42.6807 19.8126C43.368 19.2737 44.4458 19.2878 45.0807 19.9217C45.2475 20.0898 45.3793 20.2894 45.4685 20.5089C45.5576 20.7284 45.6023 20.9633 45.6 21.2002V28.4002Z" fill="#0075FF" stroke="white" stroke-width="0.6"/>
<path d="M35.388 30.5706C35.7888 29.7727 35.9984 28.8923 35.9999 27.9993V20.4034C35.9982 18.8652 35.3865 17.3904 34.2989 16.3027C33.2113 15.2149 31.7367 14.6029 30.1985 14.6008H17.8014C16.2632 14.6029 14.7886 15.2149 13.701 16.3027C12.6135 17.3904 12.0017 18.8652 12 20.4034V27.9993C12.0017 29.5375 12.6135 31.0121 13.7011 32.0997C14.7887 33.1873 16.2633 33.7991 17.8014 33.8008H29.8909L35.3596 37.2186C35.5691 37.3498 35.814 37.413 36.0609 37.3997C36.3077 37.3865 36.5445 37.2973 36.7387 37.1443C36.9329 36.9914 37.0752 36.7822 37.146 36.5454C37.2169 36.3085 37.2128 36.0556 37.1345 35.8211L35.388 30.5706ZM30.8727 31.5797C30.6819 31.4606 30.4616 31.3975 30.2367 31.3975H30.1483H17.8014C16.9002 31.3964 16.0362 31.0381 15.3987 30.4011C14.7611 29.7642 14.402 28.9005 14.4 27.9993V20.4034C14.4011 19.5015 14.7599 18.6369 15.3975 17.9991C16.0351 17.3612 16.8996 17.0023 17.8014 17.0008H30.1985C31.1004 17.0023 31.9649 17.3612 32.6025 17.9991C33.2401 18.6369 33.5988 19.5015 33.6 20.4034V27.9993C33.5968 28.6401 33.4122 29.2668 33.0676 29.807C32.9726 29.9572 32.9122 30.1266 32.8907 30.303C32.8692 30.4794 32.8871 30.6584 32.9432 30.827L33.8061 33.4146L30.8727 31.5797Z" fill="#0075FF" stroke="white" stroke-width="0.6"/>
<path d="M19.2 25.4005C19.8627 25.4005 20.4 24.8632 20.4 24.2005C20.4 23.5377 19.8627 23.0005 19.2 23.0005C18.5373 23.0005 18 23.5377 18 24.2005C18 24.8632 18.5373 25.4005 19.2 25.4005Z" fill="#0075FF"/>
<path d="M28.7996 25.4005C29.4623 25.4005 29.9996 24.8632 29.9996 24.2005C29.9996 23.5377 29.4623 23.0005 28.7996 23.0005C28.1369 23.0005 27.5996 23.5377 27.5996 24.2005C27.5996 24.8632 28.1369 25.4005 28.7996 25.4005Z" fill="#0075FF"/>
<path d="M24.0008 25.4005C24.6635 25.4005 25.2008 24.8632 25.2008 24.2005C25.2008 23.5377 24.6635 23.0005 24.0008 23.0005C23.338 23.0005 22.8008 23.5377 22.8008 24.2005C22.8008 24.8632 23.338 25.4005 24.0008 25.4005Z" fill="#0075FF"/>
</g>
<defs>
<clipPath id="clip0_2352_755">
<rect width="48" height="48" fill="white"/>
</clipPath>
</defs>
</svg>
