<svg width="37" height="38" viewBox="0 0 37 38" fill="none" xmlns="http://www.w3.org/2000/svg">
<g clip-path="url(#clip0_2352_1655)">
<path d="M21.424 10.1818C16.9633 9.24668 13.4767 5.76008 12.5417 1.29925C12.4268 0.751655 11.9438 0.359375 11.3842 0.359375C10.8245 0.359375 10.3415 0.751655 10.2267 1.29932C9.29168 5.76008 5.80508 9.24661 1.34432 10.1816C0.796648 10.2964 0.404297 10.7794 0.404297 11.339C0.404297 11.8986 0.796576 12.3817 1.34432 12.4965C5.805 13.4316 9.29146 16.9181 10.2265 21.3789C10.3413 21.9266 10.8243 22.3189 11.384 22.3189C11.9436 22.3189 12.4266 21.9266 12.5414 21.3789C13.4765 16.9181 16.9632 13.4316 21.424 12.4967C21.9716 12.3819 22.364 11.8989 22.364 11.3392C22.3639 10.7797 21.9716 10.2966 21.424 10.1818Z" fill="#F7F7F7"/>
<path d="M19.4669 29.7188C17.3652 29.2783 15.7225 27.6356 15.2818 25.5338C15.167 24.9861 14.684 24.5938 14.1244 24.5938C13.5648 24.5938 13.0817 24.986 12.9669 25.5337C12.5263 27.6355 10.8835 29.2782 8.78182 29.7188C8.23415 29.8335 7.8418 30.3166 7.8418 30.8762C7.8418 31.4358 8.23408 31.9188 8.78182 32.0336C10.8834 32.4742 12.5262 34.117 12.9668 36.2187C13.0816 36.7664 13.5646 37.1588 14.1242 37.1588C14.6838 37.1588 15.1669 36.7666 15.2817 36.2187C15.7223 34.117 17.3651 32.4743 19.4669 32.0337C20.0145 31.9189 20.4069 31.4359 20.4069 30.8763C20.4069 30.3167 20.0146 29.8337 19.4669 29.7188Z" fill="#F7F7F7"/>
<path d="M35.4413 18.7696C32.6005 18.1741 30.3801 15.9536 29.7846 13.1129C29.6699 12.5652 29.1869 12.1729 28.6272 12.1729C28.0676 12.1729 27.5846 12.5651 27.4698 13.1128C26.8742 15.9536 24.6539 18.174 21.8131 18.7694C21.2654 18.8842 20.873 19.3673 20.873 19.9269C20.873 20.4865 21.2653 20.9695 21.8131 21.0843C24.6538 21.6798 26.8742 23.9002 27.4696 26.741C27.5844 27.2887 28.0674 27.681 28.6271 27.681C29.1867 27.681 29.6697 27.2888 29.7845 26.741C30.3801 23.9002 32.6005 21.6798 35.4412 21.0845C35.9889 20.9696 36.3812 20.4866 36.3812 19.927C36.3812 19.3674 35.989 18.8844 35.4413 18.7696Z" fill="#F7F7F7"/>
</g>
<defs>
<clipPath id="clip0_2352_1655">
<rect width="36.7987" height="36.7987" fill="white" transform="translate(0 0.358398)"/>
</clipPath>
</defs>
</svg>
