<svg width="22" height="21" viewBox="0 0 22 21" fill="none" xmlns="http://www.w3.org/2000/svg">
<g clip-path="url(#clip0_2352_1676)">
<g clip-path="url(#clip1_2352_1676)">
<path d="M20.6425 12.6172L18.6532 11.467C18.6791 11.2088 18.6921 10.9491 18.6921 10.6902C18.6921 10.4313 18.6791 10.1715 18.6532 9.91338L20.6425 8.76311C21.0203 8.54464 21.1497 8.06084 20.9316 7.68245L18.5619 3.57173C18.3439 3.19361 17.8605 3.06367 17.4828 3.28218L15.4936 4.43241C15.072 4.12736 14.6228 3.86705 14.1501 3.654V1.35507C14.1501 0.918145 13.7964 0.563965 13.3602 0.563965H8.62073C8.18447 0.563965 7.8308 0.918145 7.8308 1.35507V3.65396C7.35811 3.86701 6.90884 4.12732 6.48734 4.43237L4.49809 3.28214C4.12026 3.06367 3.63717 3.1933 3.41906 3.57173L1.04933 7.68241C0.831181 8.0608 0.960646 8.5446 1.33844 8.76307L3.32773 9.91334C3.30186 10.1715 3.2888 10.4312 3.2888 10.6902C3.2888 10.9491 3.30186 11.2089 3.32773 11.467L1.33844 12.6173C0.960646 12.8357 0.831181 13.3195 1.04933 13.6979L3.41906 17.8087C3.63721 18.187 4.1203 18.3166 4.49809 18.0982L6.48734 16.948C6.90884 17.2531 7.35811 17.5134 7.8308 17.7264V20.0253C7.8308 20.4622 8.18447 20.8164 8.62073 20.8164H13.3602C13.7964 20.8164 14.1501 20.4622 14.1501 20.0253V17.7264C14.6228 17.5133 15.072 17.253 15.4936 16.948L17.4828 18.0982C17.8612 18.317 18.3441 18.1863 18.5619 17.8087L20.9316 13.6979C21.1497 13.3195 21.0203 12.8357 20.6425 12.6172ZM17.5887 16.3324L15.8232 15.3116C15.5357 15.1453 15.1751 15.1769 14.9208 15.3905C14.3727 15.8507 13.7565 16.2077 13.0893 16.4516C12.7777 16.5655 12.5703 16.8624 12.5703 17.1948V19.2342H9.41061V17.1947C9.41061 16.8624 9.20322 16.5655 8.89152 16.4515C8.22434 16.2076 7.60818 15.8507 7.06018 15.3905C6.8058 15.1769 6.44521 15.1453 6.15768 15.3116L4.39224 16.3324L2.81244 13.5919L4.57685 12.5717C4.86394 12.4057 5.01698 12.0778 4.96006 11.7507C4.89938 11.4021 4.86861 11.0452 4.86861 10.6901C4.86861 10.335 4.89938 9.97825 4.96006 9.62957C5.01698 9.30249 4.86394 8.97461 4.57685 8.80863L2.81244 7.78842L4.39224 5.04794L6.15768 6.06874C6.44517 6.235 6.80576 6.20347 7.06018 5.98983C7.60818 5.5296 8.22438 5.17262 8.89152 4.92876C9.20326 4.81484 9.41061 4.51793 9.41061 4.18559V2.14618H12.5703V4.18563C12.5703 4.51793 12.7777 4.81484 13.0893 4.92879C13.7565 5.17269 14.3727 5.52968 14.9208 5.98987C15.1752 6.20351 15.5358 6.23508 15.8232 6.06878L17.5887 5.04798L19.1685 7.78846L17.4041 8.80867C17.117 8.97465 16.9639 9.30252 17.0208 9.62957C17.0815 9.97837 17.1123 10.3352 17.1123 10.6902C17.1123 11.0451 17.0815 11.402 17.0208 11.7508C16.964 12.0779 17.117 12.4057 17.4041 12.5717L19.1685 13.5919L17.5887 16.3324ZM11.7808 9.3204L13.8492 8.12622C14.2276 7.90776 14.7114 8.03738 14.9299 8.41577C15.1483 8.79416 15.0187 9.278 14.6403 9.49643L12.5727 10.6902C12.5727 11.5626 11.8629 12.2724 10.9905 12.2724C10.118 12.2724 9.40824 11.5626 9.40824 10.6902C9.40824 9.81774 10.118 9.10795 10.9905 9.10795C11.2782 9.10795 11.5481 9.18556 11.7808 9.3204ZM15.0286 12.783C14.2408 14.2979 12.6935 15.2391 10.9905 15.2391C8.4822 15.2391 6.44157 13.1984 6.44157 10.6902C6.44157 8.18192 8.4822 6.14129 10.9905 6.14129C11.4274 6.14129 11.7816 6.49547 11.7816 6.9324C11.7816 7.36933 11.4274 7.72351 10.9905 7.72351C9.35464 7.72351 8.02379 9.05435 8.02379 10.6902C8.02379 12.326 9.35464 13.6568 10.9905 13.6568C12.101 13.6568 13.1104 13.0423 13.6249 12.053C13.8264 11.6654 14.3041 11.5146 14.6917 11.7161C15.0793 11.9177 15.2302 12.3953 15.0286 12.783Z" fill="#F7F7F7"/>
</g>
</g>
<defs>
<clipPath id="clip0_2352_1676">
<rect width="20.4334" height="20.4334" fill="white" transform="translate(0.769531 0.186523)"/>
</clipPath>
<clipPath id="clip1_2352_1676">
<rect width="20.2524" height="20.2524" fill="white" transform="translate(0.863281 0.563965)"/>
</clipPath>
</defs>
</svg>
