<svg width="40" height="40" viewBox="0 0 40 40" fill="none" xmlns="http://www.w3.org/2000/svg">
<g clip-path="url(#clip0_2352_838)">
<path d="M17.5 40.0004C17.04 40.0004 16.6667 39.627 16.6667 39.167V32.5004C16.6667 32.0404 17.04 31.667 17.5 31.667C17.96 31.667 18.3333 32.0404 18.3333 32.5004V39.167C18.3333 39.627 17.96 40.0004 17.5 40.0004Z" fill="white"/>
<path d="M22.5 40.0004C22.04 40.0004 21.6667 39.627 21.6667 39.167V32.5004C21.6667 32.0404 22.04 31.667 22.5 31.667C22.96 31.667 23.3333 32.0404 23.3333 32.5004V39.167C23.3333 39.627 22.96 40.0004 22.5 40.0004Z" fill="white"/>
<path d="M37.5 33.3337H2.5C1.12167 33.3337 0 32.212 0 30.8337V9.16703C0 7.7887 1.12167 6.66703 2.5 6.66703H10.8333C11.2933 6.66703 11.6667 7.04037 11.6667 7.50037C11.6667 7.96037 11.2933 8.3337 10.8333 8.3337H2.5C2.04167 8.3337 1.66667 8.70703 1.66667 9.16703V30.8337C1.66667 31.2937 2.04167 31.667 2.5 31.667H37.5C37.9583 31.667 38.3333 31.2937 38.3333 30.8337V9.16703C38.3333 8.70703 37.9583 8.3337 37.5 8.3337H29.1667C28.7067 8.3337 28.3333 7.96037 28.3333 7.50037C28.3333 7.04037 28.7067 6.66703 29.1667 6.66703H37.5C38.8783 6.66703 40 7.7887 40 9.16703V30.8337C40 32.212 38.8783 33.3337 37.5 33.3337Z" fill="white"/>
<path d="M27.5 40.0004H12.5C12.04 40.0004 11.6667 39.627 11.6667 39.167C11.6667 38.707 12.04 38.3337 12.5 38.3337H27.5C27.96 38.3337 28.3333 38.707 28.3333 39.167C28.3333 39.627 27.96 40.0004 27.5 40.0004Z" fill="white"/>
<path d="M27.5 21.667H12.5C12.04 21.667 11.6667 21.2937 11.6667 20.8337V18.882C11.6667 17.7687 12.1 16.722 12.8867 15.9354L15 13.822V9.08537C15 7.0737 15.675 5.0887 16.9017 3.49536L19.34 0.327031C19.655 -0.0829688 20.3467 -0.0829688 20.6617 0.327031L23.1 3.49703C24.325 5.0887 25 7.0737 25 9.08537V13.822L27.1133 15.9354C27.9 16.722 28.3333 17.7687 28.3333 18.882V20.8337C28.3333 21.2937 27.96 21.667 27.5 21.667ZM13.3333 20.0004H26.6667V18.882C26.6667 18.2137 26.4067 17.587 25.935 17.1137L23.5783 14.757C23.4217 14.6004 23.3333 14.3887 23.3333 14.167V9.08537C23.3333 7.4387 22.7817 5.81537 21.7767 4.51203L20 2.20036L18.2233 4.51037C17.2183 5.81537 16.6667 7.4387 16.6667 9.08537V14.167C16.6667 14.3887 16.5783 14.6004 16.4233 14.757L14.0667 17.1137C13.5933 17.5854 13.3333 18.2137 13.3333 18.882V20.0004Z" fill="white"/>
<path d="M24.1667 25.0004C23.7067 25.0004 23.3333 24.627 23.3333 24.167V20.8337C23.3333 20.3737 23.7067 20.0004 24.1667 20.0004C24.6267 20.0004 25 20.3737 25 20.8337V24.167C25 24.627 24.6267 25.0004 24.1667 25.0004Z" fill="white"/>
<path d="M15.8333 25.0004C15.3733 25.0004 15 24.627 15 24.167V20.8337C15 20.3737 15.3733 20.0004 15.8333 20.0004C16.2933 20.0004 16.6667 20.3737 16.6667 20.8337V24.167C16.6667 24.627 16.2933 25.0004 15.8333 25.0004Z" fill="white"/>
</g>
<defs>
<clipPath id="clip0_2352_838">
<rect width="40" height="40" fill="white"/>
</clipPath>
</defs>
</svg>
