<svg width="40" height="40" viewBox="0 0 40 40" fill="none" xmlns="http://www.w3.org/2000/svg">
<g clip-path="url(#clip0_2352_843)">
<g clip-path="url(#clip1_2352_843)">
<path d="M34.0541 12.4694L34.1626 12.3454L35.1387 11.3693L36.9051 9.60288C37.7108 8.79717 38.1602 7.72805 38.1602 6.59695C38.1602 5.46586 37.7108 4.39674 36.9051 3.59102L36.4093 3.0952C34.7979 1.48378 32.0089 1.48378 30.3974 3.0952L28.6311 4.86157L3.53002 29.9626L3.35958 30.1331L1.60871 38.3916L9.86726 36.6407L34.0541 12.4694ZM31.4976 4.17981C32.5202 3.17267 34.2866 3.15718 35.3092 4.17981L35.8205 4.69113C36.3318 5.20245 36.6107 5.86871 36.6107 6.59695C36.6107 7.32519 36.3318 7.99145 35.8205 8.50277L34.0541 10.2691L29.7312 5.94618L31.4976 4.17981ZM28.6311 7.04629L30.2425 8.65772L6.78386 32.1163L5.17244 30.5049L28.6311 7.04629ZM3.62299 36.3773L4.53716 32.0699L7.93045 35.4632L3.62299 36.3773ZM9.4954 34.8279L7.88397 33.2165L31.3426 9.75782L32.954 11.3693L9.4954 34.8279ZM11.8196 19.4884L0.833984 8.50277L8.50375 0.833008L19.4893 11.8186L16.158 15.0724L15.0579 13.9723L17.2426 11.7876L15.0579 9.58739L11.8041 12.8567L10.704 11.7566L13.9578 8.50277L11.7731 6.30256L9.57287 8.50277L8.47276 7.40266L10.673 5.20245L8.48825 3.01773L3.00321 8.50277L12.9042 18.4037L11.8041 19.4884H11.8196ZM39.1673 31.4966L31.4976 39.1663L20.512 28.1808L21.6121 27.0961L31.4976 36.9816L36.9826 31.4966L34.7979 29.3119L31.5285 32.5657L30.4284 31.4656L33.6978 28.1962L31.4976 26.0115L29.3128 28.1962L28.2127 27.0961L30.3974 24.8959L28.1972 22.7112L24.9434 25.965L23.8433 24.8649L28.1662 20.48L39.1518 31.4656L39.1673 31.4966Z" fill="white"/>
</g>
</g>
<defs>
<clipPath id="clip0_2352_843">
<rect width="40" height="40" fill="white"/>
</clipPath>
<clipPath id="clip1_2352_843">
<rect width="40" height="40" fill="white"/>
</clipPath>
</defs>
</svg>
