<svg width="40" height="40" viewBox="0 0 40 40" fill="none" xmlns="http://www.w3.org/2000/svg">
<path d="M34.4552 16.5346H34.3561V14.1089C34.3561 6.31678 28.0395 0 20.2472 0C12.455 0 6.13833 6.31678 6.13833 14.1089V16.5346H5.54431C3.36607 16.5346 1.68293 18.4653 1.68293 20.6931V26.8812C1.62806 29.0404 3.33404 30.8352 5.49324 30.8901C5.51029 30.8906 5.52725 30.8909 5.54431 30.8911H9.20765C9.72653 30.8667 10.1274 30.4262 10.103 29.9073C10.1021 29.8886 10.1007 29.87 10.0987 29.8514V17.7227C10.0987 17.1287 9.75221 16.5346 9.20765 16.5346H8.11853V14.1088C8.11853 7.41035 13.5488 1.98011 20.2472 1.98011C26.9457 1.98011 32.3759 7.41035 32.3759 14.1088V16.5346H31.2868C30.7423 16.5346 30.3957 17.1286 30.3957 17.7227V29.8514C30.3405 30.3679 30.7144 30.8315 31.2309 30.8867C31.2495 30.8887 31.2682 30.8901 31.2868 30.891H32.4254L32.3264 31.0394C30.8409 33.0137 28.5099 34.17 26.0393 34.1582C25.4984 31.5061 22.9099 29.7945 20.2578 30.3355C17.9898 30.798 16.3546 32.7843 16.3363 35.0989C16.3634 37.8136 18.572 40 21.2868 39.9998C22.6307 39.978 23.9117 39.4265 24.8511 38.4651C25.4849 37.8161 25.9003 36.9853 26.0393 36.0889C29.1332 36.1006 32.051 34.6509 33.9105 32.178L34.8511 30.7918C36.9798 30.6434 38.3165 29.3067 38.3165 27.376V21.1879C38.3165 19.0594 36.7324 16.5346 34.4552 16.5346ZM8.11853 28.9109H5.54431C4.47831 28.8849 3.63518 27.9998 3.66114 26.9338C3.66161 26.9162 3.66228 26.8987 3.66313 26.8811V20.693C3.66313 19.5544 4.45519 18.5148 5.54431 18.5148H8.11853V28.9109ZM23.4156 37.0792C22.8669 37.674 22.0961 38.0147 21.2869 38.0198C19.6762 37.9942 18.3692 36.7089 18.3166 35.099C18.3159 33.4858 19.6231 32.1776 21.2362 32.177C22.8493 32.1763 24.1575 33.4835 24.1582 35.0966C24.1582 35.0973 24.1582 35.0982 24.1582 35.099C24.1994 35.834 23.9299 36.5525 23.4156 37.0792ZM36.3363 27.3762C36.3363 28.7128 35.0492 28.9109 34.4552 28.9109H32.3759V18.5148H34.4552C35.5443 18.5148 36.3363 20.0495 36.3363 21.1881V27.3762Z" fill="white"/>
</svg>
